<?xml version="1.0" encoding="iso-8859-1"?>
<!-- Generator: Adobe Illustrator 19.0.0, SVG Export Plug-In . SVG Version: 6.00 Build 0)  -->
<svg version="1.1" id="Capa_1" xmlns="http://www.w3.org/2000/svg" xmlns:xlink="http://www.w3.org/1999/xlink" x="0px" y="0px"
	 viewBox="0 0 512.002 512.002" style="enable-background:new 0 0 512.002 512.002;" xml:space="preserve">
<path style="fill:#AFE5FE;" d="M437.02,74.981c-99.974-99.974-262.064-99.974-362.039,0s-99.974,262.064,0,362.039
	s262.064,99.974,362.039,0S536.995,174.955,437.02,74.981z M236.12,275.881c-10.98-10.98-10.98-28.782,0-39.761
	c10.98-10.98,28.782-10.98,39.761,0c10.98,10.98,10.98,28.782,0,39.761C264.902,286.861,247.1,286.86,236.12,275.881z"/>
<path style="fill:#76D8FD;" d="M437.02,74.981c-6.353-6.353-12.958-12.297-19.78-17.842
	c81.724,100.544,75.78,248.637-17.842,342.258S157.684,498.963,57.14,417.239c5.545,6.822,11.49,13.428,17.842,19.78
	c99.974,99.974,262.064,99.974,362.039,0S536.995,174.955,437.02,74.981z"/>
<path style="fill:#9EBECC;" d="M256.001,190.228c-36.325,0-65.772,29.447-65.772,65.772s29.447,65.772,65.772,65.772
	s65.772-29.447,65.772-65.772S292.326,190.228,256.001,190.228z M236.12,275.881c-10.98-10.98-10.98-28.782,0-39.761
	c10.98-10.98,28.782-10.98,39.761,0c10.98,10.98,10.98,28.782,0,39.761C264.902,286.861,247.1,286.86,236.12,275.881z"/>
<path style="fill:#86AEBC;" d="M284.117,256c0,15.528-12.588,28.116-28.116,28.116v37.657c36.325,0,65.772-29.447,65.772-65.772
	s-29.447-65.772-65.772-65.772v37.657C271.529,227.884,284.117,240.472,284.117,256z"/>
<g>
	<path style="fill:#EBF9FC;" d="M191.236,191.052c7.044-7.044,14.959-12.679,23.387-16.949l-33.57-125.286
		c-29.489,10.626-57.15,27.719-80.742,51.31c-23.591,23.592-40.684,51.253-51.31,80.742l125.286,33.57
		C178.557,206.011,184.192,198.096,191.236,191.052z"/>
	<path style="fill:#EBF9FC;" d="M337.715,297.195c-4.27,8.429-9.905,16.343-16.949,23.387s-14.959,12.679-23.387,16.949
		l33.57,125.286c29.489-10.625,57.15-27.719,80.742-51.31s40.685-51.253,51.31-80.742L337.715,297.195z"/>
</g>
<path style="fill:#B9E4EF;" d="M450.108,327.31c-12.26,26.085-29.155,50.532-50.71,72.087
	c-21.498,21.498-45.873,38.36-71.881,50.612l3.432,12.808c29.489-10.625,57.15-27.719,80.742-51.31s40.685-51.253,51.31-80.742
	L450.108,327.31z"/>
<g>
</g>
<g>
</g>
<g>
</g>
<g>
</g>
<g>
</g>
<g>
</g>
<g>
</g>
<g>
</g>
<g>
</g>
<g>
</g>
<g>
</g>
<g>
</g>
<g>
</g>
<g>
</g>
<g>
</g>
</svg>
