<?xml version="1.0" encoding="iso-8859-1"?>
<!-- Generator: Adobe Illustrator 19.0.0, SVG Export Plug-In . SVG Version: 6.00 Build 0)  -->
<svg version="1.1" id="Capa_1" xmlns="http://www.w3.org/2000/svg" xmlns:xlink="http://www.w3.org/1999/xlink" x="0px" y="0px"
	 viewBox="0 0 511.999 511.999" style="enable-background:new 0 0 511.999 511.999;" xml:space="preserve">
<polygon style="fill:#9EBECC;" points="318.256,475.829 193.744,475.829 220.014,364.483 291.986,364.483 "/>
<polygon style="fill:#86AEBC;" points="256,475.829 318.256,475.829 291.986,364.483 256,364.483 "/>
<path style="fill:#DFEAEF;" d="M490.486,388.339H21.514C9.632,388.339,0,378.706,0,366.824V43.346
	c0-11.882,9.632-21.514,21.514-21.514h468.971c11.882,0,21.514,9.632,21.514,21.514v323.478
	C512,378.706,502.368,388.339,490.486,388.339z"/>
<path style="fill:#BFCFD6;" d="M490.486,21.832h-32.501v321.137c0,11.882-9.632,21.514-21.514,21.514H0v2.341
	c0,11.882,9.632,21.514,21.514,21.514h468.971c11.882,0,21.514-9.632,21.514-21.514V43.346
	C512,31.464,502.368,21.832,490.486,21.832z"/>
<path style="fill:#435256;" d="M381.029,490.168H130.971c-5.539,0-10.03-4.491-10.03-10.03v-15.096c0-5.539,4.491-10.03,10.03-10.03
	h250.058c5.539,0,10.03,4.491,10.03,10.03v15.096C391.059,485.677,386.568,490.168,381.029,490.168z"/>
<path style="fill:#2D3B3D;" d="M381.029,455.012h-43.786l0,0c0,11.855-9.61,21.465-21.465,21.465H130.971
	c-5.539,0-10.03-4.491-10.03-10.03v13.69c0,5.539,4.491,10.03,10.03,10.03h206.272h43.786c5.539,0,10.03-4.491,10.03-10.03v-13.69
	v-1.405C391.059,459.503,386.568,455.012,381.029,455.012z"/>
<path style="fill:#35E5E5;" d="M477.978,320.125V63.098c0-4-3.243-7.243-7.243-7.243H41.266c-4,0-7.243,3.243-7.243,7.243v257.027
	c0,4,3.243,7.243,7.243,7.243h429.469C474.735,327.368,477.978,324.125,477.978,320.125z"/>
<path style="fill:#28CEC9;" d="M470.734,55.854h-12.749v271.513h12.749c4,0,7.243-3.243,7.243-7.243V63.098
	C477.978,59.097,474.735,55.854,470.734,55.854z"/>
<g>
</g>
<g>
</g>
<g>
</g>
<g>
</g>
<g>
</g>
<g>
</g>
<g>
</g>
<g>
</g>
<g>
</g>
<g>
</g>
<g>
</g>
<g>
</g>
<g>
</g>
<g>
</g>
<g>
</g>
</svg>
