<?xml version="1.0" encoding="iso-8859-1"?>
<!-- Generator: Adobe Illustrator 19.0.0, SVG Export Plug-In . SVG Version: 6.00 Build 0)  -->
<svg version="1.1" id="Capa_1" xmlns="http://www.w3.org/2000/svg" xmlns:xlink="http://www.w3.org/1999/xlink" x="0px" y="0px"
	 viewBox="0 0 512 512" style="enable-background:new 0 0 512 512;" xml:space="preserve">
<path style="fill:#2D739B;" d="M467.362,258.394l-423.894,1.437L43.422,102.92c-0.003-10.645,8.606-19.286,19.251-19.322
	l385.262-1.306c10.691-0.036,19.378,8.619,19.382,19.31L467.362,258.394z"/>
<path style="fill:#FEC573;" d="M401.657,246.14l-292.888,1.145c-6.489,0.025-11.77-5.215-11.796-11.704L96.148,24.656
	c-0.025-6.489,5.215-11.77,11.704-11.796l292.888-1.145c6.489-0.025,11.77,5.215,11.796,11.704l0.825,210.926
	C413.386,240.834,408.146,246.115,401.657,246.14z"/>
<path style="fill:#FC9F3D;" d="M400.74,11.715l-53.599,0.21c6.489-0.025,11.77,5.215,11.795,11.704l0.825,210.926
	c0.025,6.489-5.215,11.77-11.703,11.796l53.599-0.21c6.489-0.025,11.729-5.306,11.704-11.796l-0.825-210.926
	C412.51,16.93,407.229,11.69,400.74,11.715z"/>
<path style="fill:#DFEAEF;" d="M491.264,447.908l-470.456,0.138c-11.456,0.003-20.745-9.281-20.749-20.736L0,227.292
	c-0.003-11.456,9.281-20.745,20.736-20.749l470.456-0.138c11.456-0.003,20.745,9.281,20.749,20.736L512,427.159
	C512.003,438.615,502.719,447.904,491.264,447.908z"/>
<path style="fill:#BFCFD6;" d="M442.895,206.419c8.697,2.72,15.074,11.446,15.077,20.933l0.059,200.018
	c0.003,10.539-7.861,19.224-18.038,20.552l18.119-0.005l33.152-0.01c5.09-0.001,9.744-1.843,13.352-4.885
	c4.513-3.806,7.386-9.497,7.384-15.863v-0.718l-0.059-199.3c-0.001-1.967-0.293-3.862-0.805-5.664
	c-0.115-0.404-0.244-0.8-0.382-1.193c-0.368-1.047-0.796-2.066-1.319-3.029c-0.959-1.763-2.165-3.372-3.573-4.779
	c-1.408-1.407-3.017-2.613-4.781-3.57c-1.176-0.638-2.42-1.166-3.719-1.57s-2.653-0.683-4.048-0.824
	c-0.697-0.071-1.405-0.107-2.121-0.106L442.895,206.419z"/>
<path style="fill:#435256;" d="M451.236,447.918l-389.728,0.114l-0.013-43.179c-0.002-6.643,5.381-12.029,12.024-12.031
	l365.673-0.107c6.643-0.002,12.029,5.381,12.031,12.024L451.236,447.918z"/>
<path style="fill:#2D3B3D;" d="M451.168,430.394l-389.665,0.114l0.005,17.525l389.728-0.114l-0.013-43.178
	c0-0.418-0.022-0.831-0.064-1.238L451.168,430.394z"/>
<path style="fill:#435256;" d="M451.872,294.051l-18.827,0.074c-6.188,0.024-11.223-4.972-11.248-11.16l-0.074-18.827
	c-0.024-6.188,4.972-11.223,11.16-11.248l18.827-0.074c6.188-0.024,11.223,4.972,11.248,11.16l0.074,18.827
	C463.056,288.991,458.06,294.027,451.872,294.051z"/>
<path style="fill:#FC9F3D;" d="M431.66,493.703l-35.82-100.975l-278.39,0.082L81.689,493.806c-1.12,3.162,1.226,6.48,4.581,6.479
	l340.814-0.1C430.438,500.184,432.782,496.865,431.66,493.703z"/>
<path style="fill:#ED852F;" d="M431.66,493.703l-0.026-0.075l-35.794-100.9l-57.148,0.017l26.976,75.945
	c2.51,7.075-2.736,14.504-10.243,14.507l-269.222,0.079c-0.262,0-0.514-0.026-0.763-0.065l-3.752,10.595
	c-0.14,0.395-0.226,0.793-0.262,1.186c-0.201,2.164,1.092,4.195,3.078,4.966c0.542,0.21,1.135,0.327,1.764,0.327l340.814-0.1
	C430.438,500.184,432.782,496.865,431.66,493.703z"/>
<g>
	<path style="fill:#FFFFFF;" d="M146.29,91.004l220.603-0.862c4.27-0.017,7.718-3.491,7.701-7.762s-3.491-7.718-7.762-7.701
		L146.23,75.541c-4.27,0.017-7.718,3.491-7.701,7.762C138.545,87.573,142.02,91.02,146.29,91.004z"/>
	<path style="fill:#FFFFFF;" d="M367.043,128.55l-220.603,0.862c-4.27,0.017-7.718,3.491-7.701,7.762
		c0.017,4.27,3.491,7.718,7.762,7.701l220.603-0.862c4.27-0.017,7.718-3.491,7.701-7.762
		C374.788,131.981,371.313,128.533,367.043,128.55z"/>
</g>
<g>
	<path style="fill:#DFEAEF;" d="M366.832,74.678l-7.696,0.03l0.06,15.463l7.696-0.03c4.27-0.017,7.718-3.491,7.701-7.762
		S371.103,74.662,366.832,74.678z"/>
	<path style="fill:#DFEAEF;" d="M367.043,128.55l-7.696,0.03l0.06,15.463l7.696-0.03c4.27-0.017,7.718-3.491,7.701-7.762
		C374.788,131.981,371.313,128.533,367.043,128.55z"/>
</g>
<g>
</g>
<g>
</g>
<g>
</g>
<g>
</g>
<g>
</g>
<g>
</g>
<g>
</g>
<g>
</g>
<g>
</g>
<g>
</g>
<g>
</g>
<g>
</g>
<g>
</g>
<g>
</g>
<g>
</g>
</svg>
